<svg aria-hidden="true" style="position: absolute; width: 0; height: 0; overflow: hidden;" version="1.1" xmlns="http://www.w3.org/2000/svg" xmlns:xlink="http://www.w3.org/1999/xlink">
<defs>
<symbol id="icon-antenna" viewBox="0 0 32 32">
<path style="" d="M30.773 22.098l-8.443-8.505 0.937-4.616c0.225 0.090 0.485 0.144 0.758 0.146h0.007c0.008 0 0.017 0 0.026 0 1.192 0 2.159-0.967 2.159-2.159s-0.967-2.159-2.159-2.159c-1.192 0-2.159 0.967-2.159 2.159 0 0.259 0.046 0.508 0.13 0.739l-0.005-0.015-4.96 0.606-8.091-8.133c-0.096-0.098-0.229-0.159-0.376-0.16h-0c-0.14 0.001-0.274 0.057-0.373 0.155l-1.512 1.504c-0.096 0.097-0.156 0.23-0.156 0.377s0.060 0.281 0.156 0.377v0l0.814 0.825c-1.143 2.062-1.816 4.522-1.816 7.139 0 4.106 1.656 7.824 4.336 10.525l-0.001-0.001c0.043 0.041 0.092 0.074 0.146 0.097-0.032 0.164-0.051 0.353-0.052 0.546v6.188h-6.4c-1.472 0.001-2.666 1.194-2.667 2.666v1.067c0 0.295 0.239 0.534 0.534 0.534h24.534c0.294 0 0.533-0.239 0.533-0.534v-1.067c-0.002-1.472-1.195-2.665-2.666-2.666h-6.4v-2.742c1.003 0.21 2.024 0.317 3.049 0.32 2.58-0.003 5.005-0.663 7.117-1.822l-0.077 0.039 0.818 0.823c0.099 0.101 0.235 0.159 0.376 0.16 0.14-0.001 0.274-0.057 0.373-0.155l1.512-1.504c0.096-0.097 0.156-0.23 0.156-0.377s-0.060-0.281-0.156-0.377v0zM23.28 6.233c0.193-0.192 0.459-0.31 0.752-0.31 0.589 0 1.067 0.478 1.067 1.066s-0.477 1.066-1.067 1.066c-0 0-0 0-0 0h-0.004c-0.587-0.003-1.061-0.479-1.061-1.066 0-0.295 0.12-0.563 0.314-0.756l0-0h-0.002zM22.024 9.737l-0.598 2.946-1.175-1.183 1.774-1.763zM21.419 8.835l-1.92 1.909-1.486-1.493 3.406-0.416zM24.004 28.8c0.884 0 1.6 0.716 1.6 1.6v0 0.534h-23.466v-0.534c0-0.884 0.716-1.6 1.6-1.6v0h20.267zM16.538 26.666v1.067h-5.334v-1.067h5.334zM11.204 25.6v-4.053c0-1.294 1.196-2.346 2.667-2.346s2.667 1.053 2.667 2.346v4.053h-5.334zM17.604 23.904v-2.357c0-1.882-1.675-3.413-3.733-3.413-0.017-0-0.038-0-0.058-0-1.353 0-2.54 0.707-3.213 1.771l-0.009 0.016c-2.36-2.482-3.812-5.846-3.812-9.55 0-2.314 0.567-4.496 1.569-6.414l-0.036 0.077 18.602 18.709c-1.823 0.947-3.979 1.502-6.266 1.502-1.079 0-2.128-0.124-3.136-0.357l0.093 0.018zM28.893 23.22l-21.057-21.181 0.754-0.752 7.935 7.98c0.004 0 0.006 0.007 0.010 0.010l13.114 13.191-0.757 0.752z"></path>
<path style="fill: var(--color2, #2196f3)" d="M13.876 20.267h-0.005c-0.001 0-0.002 0-0.002 0-0.884 0-1.6 0.716-1.6 1.6s0.715 1.599 1.597 1.6h0.005c0.001 0 0.001 0 0.002 0 0.884 0 1.6-0.716 1.6-1.6s-0.715-1.599-1.598-1.6h-0zM14.249 22.245c-0.096 0.096-0.229 0.155-0.376 0.155-0.295 0-0.534-0.239-0.534-0.534s0.238-0.533 0.532-0.533h0c0.293 0.001 0.531 0.239 0.531 0.533 0 0.148-0.060 0.282-0.157 0.378l-0 0h0.005z"></path>
</symbol>
<symbol id="icon-astronaut" viewBox="0 0 32 32">
<path fill="#2196f3" style="fill: var(--color2, #2196f3)" d="M31.974 4.524c-0.064-0.191-0.227-0.332-0.427-0.362l-0.003-0-1.911-0.278-0.855-1.731c-0.179-0.365-0.777-0.365-0.956 0l-0.855 1.731-1.911 0.278c-0.26 0.039-0.457 0.26-0.457 0.528 0 0.15 0.062 0.285 0.161 0.382l1.383 1.348-0.326 1.903c-0.034 0.2 0.048 0.402 0.212 0.522 0.166 0.12 0.383 0.135 0.562 0.040l1.709-0.899 1.709 0.899c0.072 0.038 0.157 0.061 0.247 0.061 0.295 0 0.534-0.239 0.534-0.534 0-0.031-0.003-0.062-0.008-0.092l0 0.003-0.326-1.903 1.383-1.348c0.099-0.097 0.161-0.233 0.161-0.382 0-0.059-0.009-0.115-0.027-0.168l0.001 0.004zM29.511 5.851c-0.126 0.122-0.183 0.299-0.153 0.472l0.191 1.114-1-0.526c-0.072-0.039-0.158-0.062-0.249-0.062s-0.177 0.023-0.252 0.063l0.003-0.001-1 0.526 0.191-1.114c0.005-0.027 0.008-0.059 0.008-0.091 0-0.149-0.061-0.285-0.16-0.381l-0-0-0.811-0.79 1.119-0.162c0.174-0.025 0.324-0.134 0.402-0.292l0.5-1.013 0.5 1.013c0.078 0.158 0.228 0.267 0.402 0.292l1.119 0.162-0.809 0.79zM26.134 20.522h-1.067v1.067h1.067v-1.067zM26.134 22.656h-1.067v1.066h1.067v-1.066zM27.2 21.589h-1.067v1.067h1.067v-1.067zM25.067 21.589h-1.067v1.067h1.067v-1.067zM22.4 26.389h-1.067v1.067h1.067v-1.067zM22.4 28.523h-1.067v1.067h1.067v-1.067zM23.467 27.456h-1.067v1.067h1.067v-1.067zM21.334 27.456h-1.067v1.067h1.067v-1.067zM16 24.256h-1.066v1.067h1.066v-1.067zM16 26.389h-1.066v1.067h1.066v-1.067zM17.067 25.322h-1.067v1.067h1.067v-1.067zM14.934 25.322h-1.067v1.067h1.067v-1.067zM5.867 6.122h-1.066v1.066h1.066v-1.066zM5.867 8.256h-1.066v1.066h1.066v-1.066zM6.933 7.189h-1.067v1.067h1.066v-1.067zM4.8 7.189h-1.067v1.067h1.067v-1.067z"></path>
<path style="" d="M24.715 14.16c-0.28-0.376-0.698-0.636-1.179-0.703l-0.009-0.001c-0.076-0.012-0.164-0.018-0.254-0.018-0.411 0-0.789 0.139-1.090 0.373l0.004-0.003-1.253 0.96-1.898 1.417-1.358-0.541c2.421-1.086 4.113-3.508 4.113-6.32 0-3.823-3.122-6.934-6.961-6.934s-6.961 3.11-6.961 6.934c0 1.386 0.415 2.674 1.12 3.759l-2.768-0.024c-0.009 0-0.016 0.005-0.023 0.005-0.057 0.003-0.11 0.014-0.159 0.033l0.004-0.001c-0.013 0.005-0.026 0.007-0.038 0.013-0.006 0.003-0.013 0.003-0.019 0.006l-3.233 1.596c-0 0-0.001 0-0.001 0.001l-1.893 0.91c-0.024 0.011-0.045 0.023-0.065 0.036l0.001-0.001c-0.482 0.324-0.795 0.867-0.795 1.483 0 0.297 0.073 0.577 0.201 0.823l-0.005-0.010c0.22 0.424 0.592 0.742 1.043 0.885l0.013 0.003c0.161 0.053 0.345 0.083 0.537 0.083 0.308 0 0.598-0.078 0.851-0.216l-0.009 0.005 1.388-0.738 2.264-1.169 1.357-0.008-5.442 5.415c0 0.001-0.001 0.001-0.001 0.001l-1.339 1.333c-0.303 0.299-0.491 0.714-0.491 1.173 0 0.002 0 0.003 0 0.005v-0c0.002 0.919 0.748 1.664 1.667 1.664 0.001 0 0.002 0 0.002 0h-0c0.428 0 0.854-0.162 1.18-0.485l1.314-1.309 1.741-1.3 0.901 0.897-3.102 3.088c-0.303 0.299-0.491 0.714-0.491 1.173 0 0.001 0 0.003 0 0.004v-0c0 0.445 0.174 0.864 0.49 1.179 0.302 0.3 0.717 0.485 1.176 0.485 0.001 0 0.002 0 0.003 0h-0c0.427 0 0.855-0.162 1.18-0.485l4.488-4.472c0.007-0.006 0.016-0.009 0.022-0.016l5.166-5.658 3.471 0.494c0.025 0.004 0.050 0.006 0.075 0.006 0.064 0 0.127-0.016 0.187-0.038 0.017-0.006 0.032-0.015 0.049-0.023 0.019-0.010 0.039-0.015 0.058-0.027l3.213-2.133c0.012-0.008 0.018-0.021 0.029-0.030 0.013-0.010 0.029-0.014 0.041-0.026l1.271-1.191c0.348-0.326 0.564-0.787 0.564-1.3 0-0.4-0.132-0.769-0.355-1.066l0.003 0.005zM2.13 17.77c-0.098 0.054-0.215 0.086-0.34 0.086-0.078 0-0.153-0.013-0.224-0.036l0.005 0.001c-0.294-0.093-0.504-0.364-0.504-0.683 0-0.235 0.114-0.444 0.289-0.575l0.002-0.001 1.314-0.632 0.316 0.924 0.133 0.389-0.992 0.527zM5.627 15.942l-1.548 0.8-0.255-0.746-0.184-0.537 2.027-1.001-0.040 1.484zM20.727 9.322c0 0.918-0.219 1.785-0.599 2.56l-4.181-1.899c-0.044-0.575-0.342-1.072-0.782-1.384l-0.006-0.004 1.464-4.861c2.377 0.757 4.104 2.975 4.104 5.588zM8.938 9.322c0-3.235 2.644-5.867 5.894-5.867 0.253 0 0.5 0.022 0.745 0.053l-1.432 4.753c-0.019 0-0.037-0.006-0.057-0.006-0 0-0.001 0-0.001 0-1.032 0-1.869 0.835-1.872 1.867v0c0.003 1.031 0.84 1.867 1.872 1.867 0 0 0 0 0.001 0h-0c0.695 0 1.295-0.383 1.618-0.944l3.863 1.755c-1.075 1.447-2.795 2.39-4.737 2.39-3.25 0-5.894-2.632-5.894-5.867zM14.895 10.122c0 0.441-0.362 0.8-0.806 0.8-0 0-0.001 0-0.001 0-0.443 0-0.802-0.358-0.804-0.8v-0c0-0.441 0.361-0.8 0.806-0.8s0.806 0.359 0.806 0.8zM2.464 25.146c-0.11 0.109-0.261 0.176-0.428 0.176s-0.317-0.067-0.427-0.175l0 0c-0.109-0.108-0.176-0.257-0.176-0.422s0.067-0.314 0.176-0.422l0-0 0.962-0.959 0.852 0.848-0.959 0.954zM5.678 28.88c-0.11 0.109-0.261 0.176-0.428 0.176s-0.317-0.067-0.427-0.175l0 0c-0.109-0.108-0.176-0.257-0.176-0.422s0.067-0.314 0.176-0.422l0-0 0.963-0.959 0.852 0.848-0.96 0.955zM9.16 25.411l-0.001 0.001-1.765 1.76-0.852-0.848 1.765-1.757c0.040-0.040 0.065-0.088 0.090-0.136 0.007-0.014 0.020-0.026 0.026-0.040 0.016-0.041 0.019-0.085 0.026-0.128 0.003-0.025 0.014-0.048 0.014-0.073 0-0.035-0.013-0.070-0.020-0.105-0.006-0.032-0.006-0.064-0.019-0.096-0.025-0.053-0.055-0.098-0.092-0.138l0 0c-0.010-0.012-0.014-0.026-0.025-0.038h-0.001s0-0.001-0.001-0.002l-1.607-1.6c-0.017-0.017-0.039-0.024-0.058-0.038-0.025-0.021-0.054-0.040-0.084-0.056l-0.003-0.001c-0.026-0.012-0.058-0.023-0.090-0.031l-0.003-0.001c-0.030-0.009-0.065-0.017-0.101-0.020l-0.002-0c-0.007-0-0.015-0-0.023-0-0.026 0-0.051 0.002-0.075 0.005l0.003-0c-0.036 0.005-0.069 0.009-0.104 0.021s-0.064 0.027-0.094 0.045c-0.020 0.011-0.043 0.015-0.061 0.029l-1.774 1.324-0.901-0.897 2.399-2.386 4.36 4.289-0.928 0.919zM15.979 18.394c-0.016-0.002-0.030 0.004-0.046 0.003-0.008-0-0.017-0.001-0.027-0.001-0.031 0-0.062 0.003-0.092 0.008l0.003-0c-0.070 0.011-0.132 0.035-0.187 0.070l0.002-0.001c-0.030 0.018-0.057 0.037-0.083 0.061-0.013 0.011-0.028 0.016-0.040 0.029l-4.698 5.146-4.328-4.256 2.833-2.818c0.096-0.097 0.156-0.23 0.156-0.377 0-0.295-0.239-0.534-0.534-0.534-0.001 0-0.001 0-0.002 0h0l-2.219 0.013 0.028-1.607 3.104 0.027c1.264 1.297 3.027 2.101 4.978 2.101 0.001 0 0.002 0 0.003 0h-0c0.438 0 0.864-0.046 1.28-0.122 0.040 0.032 0.080 0.064 0.129 0.085l2.41 0.96 0.152 0.758 0.178 0.886-3.003-0.427zM20.020 18.572l-0.313-1.558 1.446-1.080 0.946 1.257-2.080 1.381zM23.773 15.741l-0.837 0.785-0.931-1.236 0.831-0.637c0.155-0.119 0.351-0.168 0.543-0.143 0.193 0.027 0.364 0.128 0.48 0.284 0.088 0.117 0.141 0.265 0.141 0.426 0 0.206-0.087 0.391-0.226 0.521l-0 0z"></path>
<path style="" d="M13.602 18.544l-2.143-2.134c-0.096-0.096-0.229-0.155-0.376-0.155s-0.28 0.059-0.376 0.155l-2.143 2.133c-0.097 0.097-0.156 0.23-0.156 0.378s0.060 0.281 0.156 0.378l-0-0 2.142 2.134c0.096 0.096 0.229 0.156 0.376 0.156s0.28-0.059 0.376-0.156v0l2.143-2.134c0.097-0.097 0.157-0.23 0.157-0.378s-0.060-0.281-0.157-0.378l-0-0zM11.083 20.303l-1.387-1.381 1.386-1.381 1.387 1.381-1.387 1.381zM17.164 5.071l-0.258 1.036c0.071 0.018 1.738 0.452 1.738 2.149h1.067c0-2.017-1.666-2.965-2.547-3.184zM19.711 9.322h-1.067v1.066h1.067v-1.066z"></path>
</symbol>
<symbol id="icon-clock" viewBox="0 0 32 32">
<path  style="" d="M31.296 15.301c-0.001-8.452-6.855-15.303-15.308-15.301s-15.303 6.855-15.301 15.308c0.002 6.788 4.422 12.543 10.541 14.545l0.108 0.031c0.061 0.019 0.123 0.029 0.187 0.029 0.12 0 0.238-0.032 0.342-0.094 0.135-0.080 0.236-0.207 0.283-0.357l3.865-12.25c1.054-0.004 1.906-0.859 1.906-1.913 0-1.056-0.856-1.913-1.913-1.913-0.303 0-0.59 0.071-0.845 0.196l0.011-0.005-5.106-5.107c-0.114-0.11-0.271-0.179-0.443-0.179-0.352 0-0.638 0.286-0.638 0.638 0 0.172 0.068 0.328 0.179 0.443l-0-0 5.103 5.109c-0.121 0.241-0.191 0.525-0.191 0.826 0 0.602 0.283 1.137 0.723 1.48l0.004 0.003-3.682 11.673c-7.278-2.681-11.004-10.754-8.324-18.032s10.754-11.004 18.032-8.323c7.278 2.681 11.004 10.754 8.323 18.032-1.345 3.581-4.003 6.406-7.374 7.938l-0.088 0.036-0.398-1.874c-0.063-0.291-0.318-0.506-0.624-0.506-0.164 0-0.313 0.062-0.426 0.163l0.001-0.001-3.837 3.426c-0.132 0.117-0.214 0.287-0.214 0.477 0 0.283 0.185 0.524 0.441 0.606l0.005 0.001 4.899 1.563c0.058 0.020 0.126 0.031 0.196 0.031 0.352 0 0.637-0.285 0.637-0.637 0-0.047-0.005-0.093-0.015-0.138l0.001 0.004-0.391-1.839c5.528-2.374 9.329-7.772 9.329-14.057 0-0.011 0-0.023-0-0.034v0.002zM15.992 14.664c0.352 0 0.638 0.286 0.638 0.638s-0.285 0.638-0.638 0.638v0c-0.352 0-0.638-0.286-0.638-0.638s0.286-0.638 0.638-0.638v0zM18.092 29.528l2.184-1.948 0.603 2.84-2.787-0.892z"></path>
<path fill="#2196f3" style="fill: var(--color2, #2196f3)" d="M15.354 3.185v1.275c0 0.352 0.286 0.638 0.638 0.638s0.638-0.285 0.638-0.638v0-1.275c0-0.352-0.285-0.638-0.638-0.638s-0.638 0.285-0.638 0.638v0zM3.876 14.664c-0.352 0-0.638 0.286-0.638 0.638s0.285 0.638 0.638 0.638h1.275c0.352 0 0.638-0.286 0.638-0.638s-0.285-0.638-0.638-0.638h-1.275zM28.108 15.939c0.352 0 0.638-0.286 0.638-0.638s-0.285-0.638-0.638-0.638h-1.275c-0.352 0-0.638 0.286-0.638 0.638s0.285 0.638 0.638 0.638h1.275z"></path>
</symbol>
<symbol id="icon-customer-1" viewBox="0 0 32 32">
<path  style="" d="M5.913 0.061l4.875 4.615-9.049-0.006v22.392h23.652v-8.561l4.87 4.61v-23.050h-24.348zM25.177 17.958l-13.823-13.085h13.823v13.085zM20.886 23.786h-15.404v-15.059h1.089v14.040h14.315v1.020zM9.12 30.042l-0.569 1.172-0.569-1.172h-0.477l0.831 1.562v0.911h0.431v-0.911l0.829-1.562h-0.475zM9.835 32.515l0.2-0.576h0.958l0.202 0.576h0.449l-0.936-2.473h-0.386l-0.934 2.473h0.447zM10.514 30.568l0.358 1.025h-0.717l0.358-1.025zM12.78 31.534c-0.058 0.087-0.093 0.194-0.093 0.31 0 0.001 0 0.003 0 0.004v-0c0 0.209 0.073 0.378 0.219 0.508s0.343 0.194 0.588 0.194c0.244 0 0.455-0.067 0.632-0.199l0.139 0.165h0.479l-0.363-0.43c0.143-0.195 0.214-0.445 0.214-0.749h-0.358c0 0.167-0.035 0.318-0.103 0.454l-0.478-0.563 0.168-0.122c0.102-0.069 0.188-0.155 0.255-0.255l0.002-0.003c0.049-0.080 0.078-0.177 0.078-0.281 0-0.001 0-0.003-0-0.004v0c0-0.003 0-0.006 0-0.010 0-0.152-0.067-0.289-0.173-0.382l-0.001-0c-0.11-0.1-0.256-0.16-0.417-0.16-0.009 0-0.017 0-0.026 0.001l0.001-0c-0.199 0-0.358 0.057-0.475 0.17s-0.177 0.265-0.177 0.459c0 0.079 0.019 0.161 0.056 0.246 0.039 0.085 0.106 0.188 0.202 0.309-0.183 0.131-0.306 0.245-0.368 0.341zM13.896 32.081c-0.106 0.086-0.242 0.138-0.39 0.139h-0c-0.006 0-0.013 0.001-0.020 0.001-0.107 0-0.203-0.041-0.276-0.108l0 0c-0.068-0.067-0.111-0.161-0.111-0.264 0-0.005 0-0.010 0-0.015l-0 0.001c0-0.132 0.068-0.25 0.204-0.353l0.053-0.038 0.54 0.637zM13.453 30.985c-0.117-0.144-0.175-0.263-0.175-0.358 0-0.083 0.024-0.151 0.072-0.206 0.045-0.050 0.109-0.082 0.181-0.082 0.004 0 0.008 0 0.011 0l-0.001-0c0.003-0 0.006-0 0.009-0 0.068 0 0.13 0.027 0.176 0.070l-0-0c0.049 0.046 0.073 0.101 0.073 0.165 0 0.003 0 0.005 0 0.008 0 0.092-0.041 0.174-0.105 0.231l-0 0-0.053 0.043-0.189 0.129zM17.478 32.328c0.17-0.148 0.267-0.355 0.292-0.618h-0.428c-0.023 0.176-0.077 0.303-0.161 0.378s-0.212 0.114-0.381 0.114c-0.184 0-0.325-0.070-0.421-0.211s-0.143-0.344-0.143-0.612v-0.218c0.003-0.264 0.054-0.463 0.153-0.6 0.101-0.137 0.245-0.205 0.431-0.205 0.161 0 0.282 0.040 0.365 0.118s0.136 0.207 0.157 0.384h0.428c-0.028-0.271-0.124-0.48-0.291-0.628s-0.386-0.223-0.659-0.223c-0.202 0-0.381 0.049-0.536 0.145-0.155 0.099-0.277 0.239-0.352 0.405l-0.002 0.006c-0.079 0.173-0.125 0.375-0.125 0.588 0 0.010 0 0.020 0 0.031l-0-0.002v0.231c0.003 0.227 0.046 0.427 0.127 0.6s0.198 0.305 0.346 0.399c0.151 0.093 0.325 0.139 0.522 0.139 0.282 0 0.508-0.073 0.678-0.221zM20.003 31.982c0.083-0.183 0.126-0.397 0.126-0.639v-0.137c0-0.007 0-0.016 0-0.025 0-0.22-0.048-0.43-0.133-0.618l0.004 0.009c-0.079-0.175-0.203-0.317-0.358-0.415l-0.004-0.002c-0.155-0.097-0.333-0.146-0.535-0.146s-0.38 0.049-0.536 0.147c-0.155 0.097-0.275 0.238-0.362 0.423-0.081 0.179-0.128 0.388-0.128 0.608 0 0.011 0 0.021 0 0.032l-0-0.002v0.139c0.001 0.237 0.044 0.445 0.129 0.626 0.086 0.182 0.207 0.321 0.364 0.42 0.157 0.097 0.336 0.146 0.536 0.146 0.203 0 0.382-0.049 0.537-0.146 0.156-0.099 0.276-0.239 0.36-0.422zM19.543 30.584c0.104 0.146 0.156 0.357 0.156 0.631v0.129c0 0.278-0.051 0.49-0.154 0.635-0.102 0.145-0.248 0.218-0.438 0.218-0.005 0-0.012 0-0.018 0-0.175 0-0.33-0.088-0.422-0.221l-0.001-0.002c-0.106-0.148-0.158-0.358-0.158-0.63v-0.143c0.002-0.266 0.056-0.472 0.159-0.616 0.093-0.133 0.245-0.219 0.418-0.219 0.006 0 0.013 0 0.019 0l-0.001-0c0.191 0 0.337 0.073 0.44 0.219z"></path>
</symbol>
<symbol id="icon-customer-2" viewBox="0 0 32 32">
<path  style="" d="M14.153 1.934h-0.088c-0.134-0.008-0.269-0.012-0.403-0.015h-0.291c-0.254 0-0.513 0.006-0.771 0.019-0.009-0.001-0.019-0.001-0.029-0.001s-0.020 0-0.030 0.001l0.001-0c-2.471 0.144-4.765 0.762-6.839 1.764l0.108-0.047-0.276 0.133v14.171l0.648-0.22c0.568-0.195 1.174-0.371 1.8-0.534 1.548-0.414 3.33-0.664 5.166-0.688l0.015-0v1.862c-0.232 0.001-0.456 0.008-0.682 0.019h-0.054c-1.455 0.082-2.818 0.3-4.13 0.644l0.144-0.032c-1.804 0.459-3.384 1.092-4.853 1.904l0.104-0.053v-18.174c1.434-0.853 3.093-1.547 4.851-1.998l0.132-0.029c1.407-0.378 3.024-0.599 4.691-0.605h0.277c0.327 0.008 0.646 0.023 0.946 0.045 0.863 0.062 1.661 0.195 2.433 0.394l-0.094-0.021v1.832c-0.668-0.164-1.459-0.287-2.267-0.343l-0.046-0.003c-0.158-0.013-0.316-0.027-0.463-0.027zM17.378 3.807c0.406 0.031 0.828 0.046 1.253 0.046 1.757-0.007 3.457-0.238 5.077-0.665l-0.14 0.031c1.803-0.46 3.383-1.094 4.852-1.905l-0.105 0.053v17.85c-1.435 0.852-3.094 1.547-4.851 1.997l-0.132 0.029c-1.407 0.377-3.024 0.597-4.691 0.604h-0.004c-0.034 0-0.073 0-0.113 0-1.224 0-2.413-0.154-3.548-0.442l0.099 0.021v-17.965c0.275 0.063 0.559 0.122 0.847 0.17 0.473 0.080 0.972 0.138 1.457 0.174zM26.462 3.946l-0.648 0.218c-0.391 0.144-0.992 0.328-1.601 0.493l-0.2 0.046c-1.613 0.432-3.465 0.683-5.376 0.69h-0.004c-0.422 0-0.811-0.012-1.187-0.036l-0.516-0.034v14.577l0.444 0.038c0.411 0.036 0.835 0.054 1.263 0.054 1.508-0.007 2.967-0.206 4.357-0.576l-0.12 0.027c1.27-0.323 2.372-0.73 3.416-1.237l-0.106 0.046 0.277-0.133v-14.175z"></path>
<path  style="" d="M4.952 27.072c-0.174-0.18-0.418-0.292-0.688-0.292-0.011 0-0.023 0-0.034 0.001l0.002-0c-0.004-0-0.009-0-0.014-0-0.145 0-0.283 0.029-0.409 0.081l0.007-0.003c-0.246 0.099-0.437 0.291-0.53 0.532l-0.002 0.006c-0.051 0.128-0.076 0.264-0.074 0.402v2.428c-0.006 0.172 0.027 0.341 0.095 0.498 0.058 0.125 0.14 0.236 0.243 0.326 0.097 0.081 0.211 0.141 0.333 0.173 0.118 0.033 0.241 0.050 0.363 0.050 0.135 0.001 0.269-0.028 0.392-0.084 0.364-0.162 0.614-0.521 0.614-0.938v-0.271h-0.636v0.216c0 0.004 0 0.009 0 0.015 0 0.073-0.014 0.142-0.039 0.206l0.001-0.004c-0.022 0.054-0.053 0.099-0.092 0.137l-0 0c-0.073 0.057-0.165 0.091-0.265 0.093h-0c-0.011 0.001-0.024 0.002-0.037 0.002-0.107 0-0.201-0.052-0.26-0.132l-0.001-0.001c-0.053-0.086-0.085-0.189-0.085-0.301 0-0.009 0-0.017 0.001-0.026l-0 0.001v-2.264c-0.004-0.125 0.023-0.25 0.078-0.363 0.059-0.090 0.159-0.149 0.273-0.149 0.013 0 0.026 0.001 0.039 0.002l-0.002-0c0.004-0 0.008-0 0.012-0 0.111 0 0.209 0.054 0.271 0.136l0.001 0.001c0.066 0.086 0.105 0.194 0.105 0.312 0 0.005-0 0.010-0 0.014v-0.001 0.21h0.628v-0.248c0-0.003 0-0.007 0-0.011 0-0.149-0.028-0.291-0.080-0.422l0.003 0.008c-0.050-0.133-0.122-0.246-0.213-0.342l0 0zM8.723 27.044c-0.194-0.164-0.446-0.265-0.722-0.266h-0c-0.129 0.001-0.258 0.024-0.379 0.068-0.262 0.094-0.468 0.287-0.579 0.533l-0.003 0.006c-0.064 0.148-0.096 0.308-0.093 0.47v2.328c-0.004 0.164 0.028 0.326 0.093 0.477 0.058 0.125 0.141 0.237 0.246 0.326 0.097 0.090 0.211 0.159 0.335 0.205 0.112 0.043 0.242 0.067 0.378 0.067 0.277 0 0.531-0.103 0.724-0.273l-0.001 0.001c0.101-0.092 0.183-0.202 0.239-0.326 0.065-0.15 0.097-0.313 0.093-0.477v-2.329c0-0.006 0-0.013 0-0.020 0-0.163-0.034-0.317-0.096-0.457l0.003 0.007c-0.059-0.133-0.14-0.246-0.239-0.34l-0-0zM8.426 30.183c0.001 0.011 0.002 0.024 0.002 0.036 0 0.118-0.049 0.225-0.128 0.301l-0 0c-0.080 0.068-0.185 0.109-0.299 0.109s-0.219-0.041-0.3-0.109l0.001 0.001c-0.079-0.076-0.128-0.182-0.128-0.3 0-0.013 0.001-0.026 0.002-0.039l-0 0.002v-2.329c-0.001-0.011-0.002-0.023-0.002-0.036 0-0.118 0.049-0.225 0.128-0.301l0-0c0.080-0.068 0.185-0.109 0.299-0.109s0.219 0.041 0.3 0.109l-0.001-0.001c0.079 0.076 0.128 0.183 0.128 0.3 0 0.013-0.001 0.025-0.002 0.038l0-0.002v2.33zM13.675 31.223v-4.408h-0.61l-0.802 2.333h-0.011l-0.808-2.333h-0.604v4.408h0.63v-2.682h0.012l0.616 1.896h0.314l0.622-1.896h0.011v2.682h0.63zM17.253 27.123c-0.097-0.109-0.22-0.191-0.356-0.241-0.129-0.043-0.277-0.068-0.431-0.068-0.009 0-0.018 0-0.027 0l0.001-0h-0.936v4.408h0.628v-1.722h0.323c0.196 0.009 0.391-0.032 0.567-0.12 0.144-0.081 0.261-0.195 0.343-0.333l0.002-0.004c0.072-0.117 0.122-0.248 0.144-0.384 0.024-0.166 0.036-0.333 0.034-0.501 0.006-0.211-0.015-0.423-0.061-0.63-0.044-0.159-0.125-0.295-0.232-0.405l0 0zM16.929 28.468c-0.003 0.084-0.024 0.163-0.060 0.233l0.001-0.003c-0.036 0.068-0.092 0.121-0.16 0.153l-0.002 0.001c-0.078 0.036-0.168 0.056-0.264 0.056-0.011 0-0.023-0-0.034-0.001l0.002 0h-0.287v-1.499h0.324c0.009-0 0.020-0.001 0.030-0.001 0.092 0 0.179 0.021 0.257 0.057l-0.004-0.002c0.065 0.038 0.116 0.094 0.146 0.161l0.001 0.002c0.035 0.077 0.053 0.161 0.055 0.245v0.293c0 0.102 0.006 0.209 0 0.303h-0.006zM20.229 26.815h-0.515l-0.972 4.408h0.628l0.184-0.947h0.856l0.185 0.947h0.628l-0.996-4.408zM19.649 29.676l0.309-1.598h0.012l0.307 1.598h-0.628zM24.288 29.471h-0.012l-0.948-2.656h-0.604v4.408h0.628v-2.651h0.013l0.96 2.651h0.591v-4.408h-0.628v2.656zM28.127 26.815l-0.506 1.752h-0.013l-0.506-1.752h-0.664l0.863 2.545v1.863h0.628v-1.863l0.863-2.545h-0.666z"></path>
</symbol>
<symbol id="icon-customer-3" viewBox="0 0 32 32">
<path  style="" d="M5.266 30.356c0.023 0.001 0.044 0.010 0.061 0.024l-0-0 0.155 0.148c-0.121 0.12-0.269 0.216-0.437 0.282-0.196 0.071-0.406 0.106-0.619 0.101-0.199 0.004-0.397-0.028-0.581-0.095-0.17-0.062-0.316-0.152-0.439-0.267l0.001 0.001c-0.12-0.113-0.215-0.25-0.28-0.403l-0.003-0.008c-0.063-0.152-0.1-0.328-0.1-0.513 0-0.005 0-0.010 0-0.016v0.001c-0-0.008-0-0.018-0-0.027 0-0.362 0.157-0.688 0.407-0.912l0.001-0.001c0.132-0.116 0.291-0.207 0.465-0.267 0.191-0.064 0.395-0.097 0.599-0.095 0.011-0 0.024-0 0.037-0 0.186 0 0.364 0.031 0.53 0.089l-0.011-0.003c0.154 0.058 0.295 0.139 0.417 0.238l-0.13 0.158c-0.009 0.011-0.020 0.021-0.032 0.028l-0.001 0c-0.013 0.008-0.028 0.012-0.045 0.012-0.003 0-0.005-0-0.008-0l0 0c-0.021-0.001-0.041-0.007-0.058-0.017l0.001 0-0.069-0.043-0.097-0.053c-0.089-0.043-0.191-0.076-0.299-0.094l-0.006-0.001c-0.065-0.011-0.139-0.017-0.215-0.017-0.006 0-0.011 0-0.017 0h0.001c-0.004-0-0.009-0-0.014-0-0.149 0-0.292 0.026-0.425 0.074l0.009-0.003c-0.128 0.045-0.243 0.112-0.338 0.199-0.096 0.091-0.171 0.199-0.219 0.316-0.050 0.119-0.079 0.258-0.079 0.403 0 0.005 0 0.010 0 0.015v-0.001c-0 0.005-0 0.011-0 0.017 0 0.147 0.029 0.287 0.082 0.414l-0.003-0.007c0.048 0.117 0.121 0.223 0.215 0.315 0.089 0.085 0.199 0.153 0.322 0.196 0.127 0.046 0.262 0.068 0.399 0.068 0.080 0.001 0.159-0.004 0.237-0.014 0.197-0.020 0.373-0.099 0.513-0.219l-0.001 0.001c0.020-0.016 0.045-0.026 0.073-0.027h0zM9.745 29.611c0.003 0.179-0.033 0.357-0.105 0.525-0.069 0.161-0.168 0.296-0.29 0.406l-0.001 0.001c-0.129 0.114-0.281 0.205-0.449 0.264l-0.009 0.003c-0.176 0.060-0.379 0.094-0.589 0.094s-0.414-0.035-0.603-0.098l0.013 0.004c-0.176-0.062-0.327-0.153-0.456-0.269l0.001 0.001c-0.124-0.112-0.224-0.249-0.292-0.403l-0.003-0.008c-0.066-0.155-0.105-0.335-0.105-0.525s0.039-0.37 0.108-0.534l-0.003 0.009c0.066-0.154 0.166-0.294 0.295-0.412 0.129-0.113 0.284-0.201 0.455-0.258 0.176-0.061 0.379-0.096 0.59-0.096s0.414 0.035 0.603 0.1l-0.013-0.004c0.172 0.060 0.328 0.152 0.457 0.267 0.128 0.117 0.228 0.256 0.293 0.406 0.072 0.169 0.107 0.348 0.105 0.528zM9.338 29.611c0-0.006 0-0.014 0-0.021 0-0.144-0.027-0.281-0.077-0.407l0.003 0.008c-0.094-0.243-0.287-0.429-0.529-0.512l-0.006-0.002c-0.128-0.044-0.275-0.069-0.428-0.069s-0.301 0.025-0.438 0.072l0.010-0.003c-0.127 0.045-0.237 0.113-0.328 0.2l0-0c-0.090 0.086-0.162 0.191-0.207 0.309l-0.002 0.006c-0.047 0.125-0.074 0.27-0.074 0.421s0.027 0.296 0.077 0.43l-0.003-0.009c0.094 0.243 0.288 0.429 0.531 0.51l0.006 0.002c0.276 0.090 0.58 0.090 0.857 0 0.124-0.043 0.237-0.111 0.327-0.197 0.093-0.092 0.164-0.199 0.208-0.315 0.052-0.135 0.077-0.278 0.074-0.421zM12.801 30.053l0.041 0.094c0.015-0.033 0.028-0.064 0.044-0.094 0.015-0.032 0.032-0.063 0.050-0.092l0.991-1.565c0.020-0.027 0.037-0.044 0.057-0.049s0.044-0.009 0.068-0.009c0.005 0 0.009 0 0.014 0l-0.001-0h0.293v2.546h-0.347v-1.951c-0.001-0.013-0.001-0.029-0.001-0.044s0.001-0.031 0.002-0.046l-0 0.002-0.998 1.588c-0.014 0.025-0.034 0.044-0.058 0.057l-0.001 0c-0.024 0.013-0.053 0.021-0.084 0.021-0.001 0-0.001 0-0.002 0h-0.056c-0.001 0-0.002 0-0.002 0-0.030 0-0.059-0.008-0.084-0.022l0.001 0c-0.025-0.013-0.044-0.033-0.057-0.057l-0-0.001-1.026-1.597v2.043h-0.335v-2.54h0.292c0.004-0 0.009-0 0.013-0 0.024 0 0.048 0.003 0.070 0.009l-0.002-0c0.024 0.011 0.043 0.028 0.054 0.049l1.012 1.567c0.020 0.028 0.037 0.059 0.050 0.091zM16.529 29.926v0.953h-0.387v-2.541h0.865c0.164-0.003 0.326 0.016 0.483 0.055 0.125 0.031 0.242 0.085 0.341 0.159 0.083 0.066 0.148 0.149 0.192 0.245l0.002 0.004c0.046 0.104 0.068 0.215 0.066 0.326 0 0.005 0 0.010 0 0.016 0 0.23-0.11 0.433-0.279 0.562l-0.002 0.001c-0.1 0.076-0.216 0.134-0.343 0.169-0.13 0.037-0.28 0.059-0.435 0.059-0.011 0-0.023-0-0.034-0l0.002 0-0.469-0.007zM16.529 29.653h0.469c0.102 0.001 0.203-0.012 0.301-0.038 0.083-0.024 0.155-0.062 0.218-0.111l-0.002 0.001c0.109-0.090 0.178-0.225 0.178-0.377 0-0.002 0-0.004-0-0.006v0c0.001-0.008 0.001-0.018 0.001-0.027 0-0.065-0.014-0.127-0.040-0.182l0.001 0.003c-0.033-0.069-0.078-0.127-0.134-0.173l-0.001-0.001c-0.13-0.087-0.289-0.139-0.461-0.139-0.022 0-0.043 0.001-0.064 0.002l0.003-0h-0.469v1.047zM21.741 30.884h-0.306c-0.001 0-0.003 0-0.005 0-0.030 0-0.058-0.009-0.081-0.025l0.001 0c-0.022-0.015-0.039-0.035-0.051-0.058l-0-0.001-0.263-0.614h-1.325l-0.273 0.614c-0.024 0.049-0.073 0.083-0.131 0.083-0.001 0-0.003-0-0.004-0h-0.307l1.163-2.546h0.403l1.179 2.546zM19.821 29.938h1.094l-0.462-1.035c-0.035-0.078-0.064-0.158-0.087-0.24l-0.045 0.133c-0.014 0.041-0.028 0.078-0.043 0.108l-0.457 1.034zM23.416 28.35c0.023 0.011 0.043 0.026 0.058 0.046l1.696 1.919v-1.976h0.347v2.546h-0.193c-0.001 0-0.003 0-0.005 0-0.027 0-0.053-0.006-0.076-0.016l0.001 0c-0.024-0.012-0.045-0.028-0.062-0.047l-0-0-1.695-1.917c0.001 0.013 0.001 0.028 0.001 0.044s-0 0.031-0.002 0.046l0-0.002v1.892h-0.347v-2.546h0.206c0.001 0 0.001 0 0.002 0 0.024 0 0.048 0.005 0.069 0.013l-0.001-0zM28.375 29.871v1.011h-0.388v-1.011l-1.072-1.533h0.347c0.003-0 0.006-0 0.009-0 0.028 0 0.053 0.008 0.075 0.022l-0.001-0c0.021 0.017 0.039 0.036 0.053 0.058l0.671 0.989c0.046 0.065 0.085 0.14 0.116 0.219l0.002 0.007 0.051-0.11c0.018-0.041 0.041-0.079 0.065-0.117l0.661-0.996c0.014-0.021 0.031-0.038 0.049-0.054l0-0c0.021-0.016 0.048-0.025 0.077-0.025 0.003 0 0.005 0 0.007 0h0.351l-1.074 1.54zM12.609 24.066c0.169 0.018 0.34 0.033 0.512 0.047 2.617-1.017 4.829-2.681 6.363-4.784s2.319-4.553 2.259-7.043l-2.883-2.505c0.586 2.65 0.311 5.39-0.792 7.913s-2.994 4.729-5.459 6.372z"></path>
<path  style="" d="M11.58 23.95l0.078 0.013c2.634-1.637 4.641-3.922 5.764-6.561s1.308-5.51 0.533-8.242l-4.107-3.568c1.66 2.933 2.33 6.215 1.927 9.465-0.401 3.25-1.856 6.333-4.196 8.892zM25.506 15.228c-0.698 2.735-2.392 5.202-4.832 7.034-0.666 0.507-1.418 0.982-2.209 1.391l-0.086 0.040c1.987-0.507 3.812-1.404 5.337-2.621s2.707-2.723 3.456-4.4l-1.665-1.445z"></path>
<path  style="" d="M24.853 14.825l-2.372-2.060c-0.046 2.349-0.814 4.644-2.226 6.648s-3.416 3.641-5.803 4.745h0.011c0.532 0 1.063-0.028 1.591-0.082 2.231-0.791 4.202-2.050 5.737-3.664s2.586-3.533 3.060-5.586zM11.922 4.087l-2.829-2.461c-2.529 0.849-4.703 2.342-6.24 4.282-1.536 1.942-2.362 4.24-2.37 6.595 0.009 2.603 1.018 5.129 2.866 7.177 1.847 2.049 4.428 3.504 7.334 4.134 2.595-2.746 4.114-6.14 4.336-9.687s-0.863-7.065-3.098-10.041zM31.388 14.445c-0.010-3.088-1.427-6.047-3.94-8.23s-5.919-3.414-9.473-3.423c-0.008-0-0.018-0-0.028-0-1.708 0-3.349 0.284-4.88 0.808l0.106-0.032 17.319 15.047c0.564-1.226 0.894-2.659 0.896-4.17v-0.001z"></path>
</symbol>
<symbol id="icon-customer-4" viewBox="0 0 32 32">
<path  style="" d="M7.289 14.397h-0.001c-0.724 0-1.311 0.521-1.311 1.165v0.001c0 0.643 0.587 1.165 1.311 1.165h0.001c0.724 0 1.311-0.522 1.311-1.165v-0.001c0-0.643-0.587-1.165-1.311-1.165zM16.965 14.024c-0.002-0.894-0.402-1.75-1.113-2.382s-1.675-0.988-2.68-0.99c-1.006 0.002-1.97 0.357-2.681 0.989s-1.112 1.489-1.114 2.383v4.928s7.588-0.751 7.589-4.927v-0.001zM3.321 20.569c0.002 0.622 0.281 1.218 0.775 1.657s1.165 0.688 1.864 0.689c0.699-0.002 1.37-0.25 1.864-0.689s0.773-1.035 0.775-1.657v-3.429s-5.279 0.523-5.279 3.428zM5.96 21.184c-0.137 0-0.27-0.036-0.384-0.104-0.111-0.065-0.198-0.159-0.253-0.272l-0.002-0.004c-0.033-0.069-0.052-0.149-0.052-0.235 0-0.043 0.005-0.084 0.014-0.124l-0.001 0.004c0.027-0.119 0.092-0.229 0.189-0.315s0.22-0.145 0.354-0.168c0.041-0.008 0.087-0.012 0.135-0.012 0.095 0 0.186 0.017 0.27 0.048l-0.005-0.002c0.127 0.047 0.234 0.125 0.31 0.226s0.117 0.22 0.117 0.341c0 0 0 0.001 0 0.002 0 0.085-0.019 0.166-0.053 0.238l0.001-0.003c-0.037 0.078-0.088 0.145-0.149 0.199l-0.001 0.001c-0.064 0.057-0.14 0.103-0.225 0.134-0.078 0.030-0.169 0.047-0.264 0.047-0 0-0.001 0-0.001 0h0v-0.002zM10.786 20.084v1.288h-0.265v-1.288h0.266zM11.3 20.634v0.207h-0.586v-0.207h0.586zM11.361 20.084v0.208h-0.648v-0.208h0.648zM12.573 20.698v0.061c0 0.098-0.013 0.186-0.040 0.264-0.025 0.077-0.064 0.143-0.113 0.2l0.001-0.001c-0.048 0.054-0.106 0.096-0.173 0.125-0.063 0.027-0.137 0.043-0.214 0.043-0.003 0-0.005-0-0.008-0h0c-0.081 0-0.155-0.014-0.222-0.043s-0.126-0.072-0.173-0.124l-0-0c-0.049-0.056-0.088-0.122-0.113-0.195l-0.001-0.004c-0.025-0.075-0.040-0.162-0.040-0.252 0-0.004 0-0.008 0-0.012v0.001-0.061c0-0.098 0.013-0.186 0.040-0.264s0.064-0.144 0.112-0.199c0.049-0.055 0.107-0.097 0.173-0.126s0.141-0.043 0.222-0.043c0.082 0 0.155 0.015 0.222 0.043s0.125 0.071 0.173 0.126c0.049 0.055 0.087 0.121 0.113 0.199s0.041 0.165 0.041 0.264zM12.305 20.759v-0.063c0-0.069-0.006-0.129-0.018-0.181-0.011-0.050-0.030-0.093-0.056-0.132l0.001 0.001c-0.022-0.033-0.052-0.060-0.087-0.079l-0.001-0.001c-0.033-0.017-0.073-0.027-0.115-0.027-0.002 0-0.003 0-0.005 0h0c-0.045 0-0.085 0.009-0.12 0.027-0.036 0.019-0.065 0.046-0.087 0.079l-0.001 0.001c-0.024 0.038-0.043 0.081-0.053 0.128l-0.001 0.003c-0.012 0.051-0.019 0.11-0.019 0.17 0 0.004 0 0.007 0 0.011v-0.001 0.063c0 0.068 0.006 0.128 0.019 0.18s0.030 0.096 0.055 0.132c0.024 0.035 0.054 0.062 0.088 0.081s0.075 0.027 0.12 0.027c0.045 0 0.085-0.009 0.119-0.027 0.036-0.020 0.065-0.047 0.087-0.080l0.001-0.001c0.024-0.036 0.042-0.080 0.054-0.132s0.018-0.113 0.018-0.18zM13.435 21.035c0-0.001 0-0.002 0-0.003 0-0.021-0.004-0.042-0.011-0.060l0 0.001c-0.008-0.021-0.021-0.038-0.037-0.051l-0-0c-0.022-0.018-0.047-0.034-0.075-0.046l-0.002-0.001c-0.034-0.016-0.077-0.032-0.121-0.046l-0.008-0.002c-0.068-0.022-0.123-0.043-0.177-0.068l0.010 0.004c-0.053-0.024-0.098-0.051-0.14-0.084l0.002 0.001c-0.038-0.030-0.069-0.067-0.093-0.109l-0.001-0.002c-0.021-0.041-0.034-0.089-0.034-0.14 0-0.002 0-0.005 0-0.007v0c0-0.054 0.012-0.102 0.035-0.146s0.057-0.082 0.099-0.113c0.043-0.032 0.093-0.056 0.15-0.073s0.123-0.026 0.192-0.026c0.095 0 0.178 0.017 0.248 0.051s0.126 0.081 0.165 0.14c0.040 0.060 0.059 0.128 0.059 0.204h-0.264c0-0.001 0-0.003 0-0.004 0-0.035-0.009-0.068-0.025-0.096l0.001 0.001c-0.016-0.030-0.040-0.053-0.070-0.068l-0.001-0c-0.032-0.016-0.069-0.025-0.109-0.025-0.004 0-0.007 0-0.010 0l0.001-0c-0.003-0-0.006-0-0.009-0-0.038 0-0.075 0.008-0.108 0.022l0.002-0.001c-0.029 0.012-0.052 0.031-0.069 0.055l-0 0c-0.014 0.021-0.023 0.048-0.023 0.076 0 0.001 0 0.001 0 0.002v-0c0 0.022 0.005 0.042 0.016 0.059 0.013 0.020 0.030 0.036 0.049 0.049l0.001 0c0.022 0.015 0.048 0.030 0.080 0.043s0.069 0.027 0.111 0.040c0.070 0.021 0.132 0.045 0.185 0.072 0.051 0.025 0.096 0.055 0.135 0.090l-0.001-0c0.036 0.033 0.063 0.070 0.082 0.112s0.027 0.089 0.027 0.142c0 0.004 0 0.008 0 0.012 0 0.103-0.050 0.193-0.127 0.25l-0.001 0.001c-0.041 0.031-0.091 0.054-0.148 0.070s-0.121 0.024-0.192 0.024c-0.067-0-0.132-0.009-0.194-0.026l0.005 0.001c-0.064-0.018-0.121-0.044-0.171-0.078l0.002 0.001c-0.050-0.034-0.090-0.078-0.119-0.129l-0.001-0.002c-0.030-0.053-0.045-0.116-0.045-0.188h0.266c0 0.040 0.006 0.074 0.019 0.102s0.029 0.050 0.052 0.067l0 0c0.023 0.017 0.050 0.030 0.080 0.037l0.002 0c0.032 0.008 0.066 0.011 0.104 0.011 0.003 0 0.006 0 0.009 0 0.037 0 0.073-0.007 0.106-0.020l-0.002 0.001c0.052-0.021 0.088-0.071 0.088-0.13 0-0.001 0-0.001 0-0.002v0zM14.456 20.084v1.288h-0.264v-1.288h0.264zM14.852 20.084v0.208h-1.051v-0.208h1.051zM15.867 21.165v0.207h-0.685v-0.207h0.685zM15.269 20.084v1.288h-0.266v-1.288h0.266zM15.778 20.609v0.202h-0.596v-0.202h0.596zM15.867 20.084v0.208h-0.684v-0.208h0.684zM16.022 20.084h0.48c0.099 0 0.183 0.015 0.254 0.044s0.126 0.073 0.164 0.131c0.038 0.058 0.057 0.129 0.057 0.213 0 0.069-0.011 0.128-0.035 0.177s-0.057 0.090-0.098 0.122l-0.001 0.001c-0.042 0.032-0.091 0.059-0.144 0.077l-0.004 0.001-0.084 0.044h-0.418l-0.002-0.207h0.311c0.003 0 0.006 0 0.009 0 0.039 0 0.076-0.009 0.108-0.026l-0.001 0.001c0.030-0.016 0.053-0.039 0.069-0.068l0-0.001c0.015-0.028 0.024-0.062 0.024-0.098 0-0.002-0-0.003-0-0.005v0c0-0.002 0-0.004 0-0.006 0-0.037-0.009-0.071-0.024-0.102l0.001 0.001c-0.016-0.030-0.040-0.054-0.069-0.068l-0.001-0c-0.032-0.015-0.070-0.024-0.109-0.024-0.003 0-0.006 0-0.009 0h-0.214v1.080h-0.266v-1.288zM16.742 21.372l-0.294-0.574 0.28-0.002 0.297 0.563v0.012h-0.284zM18.135 20.913h-0.328v-0.207h0.328c0.003 0 0.007 0 0.011 0 0.041 0 0.080-0.009 0.115-0.026l-0.002 0.001c0.030-0.016 0.055-0.040 0.070-0.070l0-0.001c0.014-0.031 0.022-0.067 0.022-0.104s-0.008-0.074-0.023-0.106l0.001 0.002c-0.015-0.034-0.039-0.061-0.069-0.080l-0.001-0c-0.033-0.019-0.072-0.030-0.114-0.030-0.003 0-0.007 0-0.010 0l0-0h-0.236v1.080h-0.266v-1.288h0.502c0.101 0 0.187 0.018 0.259 0.055s0.128 0.086 0.166 0.149 0.057 0.136 0.057 0.219c0 0.083-0.019 0.155-0.057 0.216s-0.094 0.107-0.166 0.14c-0.072 0.033-0.159 0.049-0.26 0.049zM19.665 21.165v0.207h-0.685v-0.207h0.685zM19.067 20.084v1.288h-0.265v-1.288h0.265zM19.576 20.609v0.202h-0.596v-0.202h0.596zM19.664 20.084v0.208h-0.684v-0.208h0.684zM20.414 20.084v1.288h-0.264v-1.288h0.264zM20.81 20.084v0.208h-1.051v-0.208h1.051zM21.825 21.165v0.207h-0.685v-0.207h0.685zM21.226 20.084v1.288h-0.265v-1.288h0.266zM21.736 20.609v0.202h-0.596v-0.202h0.596zM21.824 20.084v0.208h-0.685v-0.208h0.685zM21.98 20.084h0.481c0.098 0 0.183 0.015 0.254 0.044 0.072 0.030 0.127 0.073 0.165 0.131s0.057 0.129 0.057 0.213c0 0.069-0.012 0.128-0.035 0.177s-0.057 0.090-0.097 0.122l-0.001 0.001c-0.042 0.032-0.091 0.059-0.144 0.077l-0.004 0.001-0.084 0.044h-0.418l-0.002-0.207h0.31c0.003 0 0.006 0 0.009 0 0.039 0 0.076-0.009 0.109-0.026l-0.001 0.001c0.030-0.016 0.053-0.039 0.068-0.068l0-0.001c0.015-0.029 0.024-0.063 0.024-0.099 0-0.001 0-0.003-0-0.004v0c0-0.002 0-0.004 0-0.006 0-0.037-0.009-0.072-0.024-0.103l0.001 0.001c-0.015-0.030-0.040-0.054-0.069-0.068l-0.001-0c-0.032-0.015-0.070-0.024-0.109-0.024-0.003 0-0.006 0-0.009 0h-0.215v1.080h-0.265v-1.288zM22.7 21.372l-0.294-0.574 0.281-0.002 0.297 0.563v0.012h-0.284zM23.811 21.035c0-0.001 0-0.002 0-0.003 0-0.021-0.004-0.042-0.011-0.060l0 0.001c-0.008-0.021-0.021-0.038-0.037-0.051l-0-0c-0.022-0.018-0.048-0.034-0.075-0.046l-0.002-0.001c-0.034-0.016-0.077-0.032-0.121-0.046l-0.008-0.002c-0.068-0.022-0.123-0.043-0.176-0.068l0.010 0.004c-0.053-0.024-0.098-0.051-0.14-0.084l0.002 0.001c-0.038-0.030-0.069-0.067-0.093-0.109l-0.001-0.002c-0.021-0.041-0.034-0.089-0.034-0.14 0-0.002 0-0.005 0-0.007v0c0-0.054 0.012-0.102 0.035-0.146s0.057-0.082 0.099-0.113c0.042-0.032 0.092-0.056 0.15-0.073s0.122-0.026 0.192-0.026c0.095 0 0.178 0.017 0.248 0.051s0.126 0.081 0.165 0.14c0.040 0.060 0.059 0.128 0.059 0.204h-0.264c0-0.001 0-0.003 0-0.004 0-0.035-0.009-0.068-0.025-0.096l0.001 0.001c-0.016-0.030-0.040-0.053-0.070-0.068l-0.001-0c-0.032-0.016-0.069-0.025-0.109-0.025-0.003 0-0.007 0-0.010 0h0c-0.003-0-0.006-0-0.009-0-0.038 0-0.075 0.008-0.108 0.022l0.002-0.001c-0.029 0.012-0.052 0.031-0.069 0.055l-0 0c-0.014 0.021-0.023 0.048-0.023 0.076 0 0.001 0 0.001 0 0.002v-0c0 0.022 0.005 0.042 0.016 0.059 0.013 0.020 0.030 0.036 0.049 0.049l0.001 0c0.022 0.015 0.049 0.030 0.081 0.043s0.069 0.027 0.11 0.040c0.070 0.021 0.132 0.045 0.185 0.072 0.051 0.025 0.096 0.055 0.135 0.090l-0.001-0c0.036 0.033 0.063 0.070 0.081 0.112s0.027 0.089 0.027 0.142c0 0.056-0.011 0.106-0.033 0.15s-0.053 0.081-0.095 0.112c-0.041 0.031-0.091 0.054-0.148 0.070s-0.121 0.024-0.192 0.024c-0.064 0-0.127-0.008-0.188-0.025-0.064-0.018-0.121-0.044-0.171-0.078l0.002 0.001c-0.050-0.034-0.090-0.078-0.119-0.129l-0.001-0.002c-0.030-0.053-0.045-0.116-0.045-0.188h0.266c0 0.040 0.006 0.074 0.019 0.102s0.029 0.050 0.052 0.067l0 0c0.023 0.017 0.050 0.030 0.080 0.037l0.002 0c0.032 0.008 0.066 0.011 0.104 0.011 0.003 0 0.006 0 0.009 0 0.037 0 0.073-0.007 0.106-0.020l-0.002 0.001c0.052-0.021 0.088-0.071 0.088-0.13 0-0.001 0-0.001 0-0.002v0z"></path>
</symbol>
<symbol id="icon-customer-5" viewBox="0 0 32 32">
<path  style="" d="M2.416 23.783c0.124 0.14 0.189 0.316 0.186 0.496 0.001 0.011 0.001 0.024 0.001 0.038 0 0.111-0.025 0.216-0.069 0.31l0.002-0.004c-0.053 0.113-0.129 0.208-0.221 0.282l-0.002 0.001c-0.21 0.145-0.471 0.231-0.751 0.231-0.031 0-0.061-0.001-0.092-0.003l0.004 0h-1.475v-3.144h1.445c0.026-0.002 0.055-0.003 0.085-0.003 0.266 0 0.513 0.079 0.72 0.214l-0.005-0.003c0.093 0.072 0.168 0.163 0.216 0.264 0.049 0.103 0.071 0.213 0.064 0.325 0.008 0.173-0.051 0.343-0.168 0.48-0.112 0.125-0.267 0.211-0.44 0.246 0.196 0.032 0.372 0.128 0.498 0.269zM0.686 23.308h0.618c0.14 0.009 0.279-0.028 0.393-0.105 0.045-0.037 0.081-0.084 0.104-0.137l0.001-0.002c0.018-0.041 0.029-0.088 0.029-0.138 0-0.011-0-0.021-0.001-0.031l0 0.001c0.001-0.008 0.001-0.017 0.001-0.027 0-0.051-0.011-0.099-0.030-0.143l0.001 0.002c-0.024-0.056-0.059-0.102-0.103-0.14l-0-0c-0.1-0.068-0.223-0.108-0.355-0.108-0.017 0-0.034 0.001-0.051 0.002l0.002-0h-0.608v0.825zM1.757 24.514c0.048-0.038 0.087-0.087 0.113-0.142l0.001-0.002c0.021-0.044 0.033-0.096 0.033-0.15 0-0.009-0-0.017-0.001-0.026l0 0.001c0-0.007 0.001-0.015 0.001-0.023 0-0.056-0.013-0.109-0.035-0.157l0.001 0.002c-0.028-0.058-0.067-0.106-0.115-0.144l-0.001-0.001c-0.106-0.072-0.237-0.115-0.378-0.115-0.014 0-0.029 0-0.043 0.001l0.002-0h-0.648v0.865h0.656c0.147 0.008 0.294-0.030 0.414-0.109zM5.369 25.135l-0.803-1.229h-0.302v1.229h-0.691v-3.145h1.309c0.028-0.002 0.060-0.003 0.093-0.003 0.308 0 0.593 0.102 0.822 0.273l-0.004-0.003c0.183 0.171 0.294 0.395 0.311 0.634 0.001 0.020 0.002 0.043 0.002 0.066 0 0.229-0.082 0.439-0.217 0.603l0.001-0.002c-0.162 0.167-0.377 0.282-0.618 0.319l-0.006 0.001 0.856 1.257h-0.752zM4.264 23.477h0.565c0.393 0 0.589-0.158 0.589-0.476 0-0.008 0.001-0.017 0.001-0.026 0-0.060-0.012-0.116-0.034-0.168l0.001 0.003c-0.027-0.064-0.065-0.118-0.112-0.162l-0-0c-0.107-0.081-0.243-0.13-0.39-0.13-0.019 0-0.038 0.001-0.057 0.002l0.002-0h-0.572l0.007 0.957zM9.148 24.502h-1.378l-0.243 0.633h-0.725l1.265-3.11h0.784l1.26 3.11h-0.724l-0.238-0.633zM8.964 24.025l-0.503-1.327-0.503 1.327h1.007zM13.878 25.135h-0.686l-1.539-2.138v2.138h-0.685v-3.145h0.685l1.539 2.151v-2.151h0.686v3.145zM17.795 24.382c-0.142 0.237-0.358 0.43-0.621 0.555-0.267 0.126-0.579 0.199-0.909 0.199-0.020 0-0.039-0-0.059-0.001l0.003 0h-1.221v-3.145h1.222c0.017-0 0.037-0.001 0.056-0.001 0.329 0 0.642 0.072 0.923 0.2l-0.014-0.006c0.263 0.122 0.479 0.313 0.621 0.549 0.141 0.256 0.215 0.538 0.215 0.825s-0.074 0.569-0.215 0.825zM17.009 24.307c0.186-0.195 0.301-0.459 0.303-0.75v-0c0-0.275-0.108-0.541-0.303-0.75-0.213-0.168-0.485-0.27-0.781-0.27-0.028 0-0.055 0.001-0.082 0.003l0.004-0h-0.476v2.036h0.476c0.024 0.002 0.051 0.002 0.079 0.002 0.296 0 0.568-0.102 0.783-0.272l-0.003 0.002zM9.578 4.497s8.857 3.062 8.67 7.492v7.495s-8.851-3.063-8.667-7.494l-0.003-7.493zM26.138 17.73c1.673-1.054 3.608-1.707 5.628-1.899v-2.346c-2.327 0.821-4.302 2.311-5.628 4.245z"></path>
<path  style="" d="M25.134 18.436c1.369-2.524 3.742-4.472 6.633-5.443v-6.76s-12.615 4.361-12.348 10.671v10.67s0.562-0.195 1.447-0.561c0-0.341 0-0.685 0.041-1.031 0.261-2.929 1.781-5.643 4.228-7.546z"></path>
<path  style="" d="M23.934 22.4c0.074-0.807 0.23-1.549 0.462-2.257l-0.020 0.072c-1.524 1.643-2.446 3.683-2.638 5.831-0.019 0.203-0.029 0.405-0.034 0.615 1.052-0.46 1.849-0.852 2.629-1.27l-0.203 0.1c-0.224-1.016-0.29-2.057-0.196-3.090zM24.436 22.439c-0.025 0.259-0.039 0.561-0.039 0.866 0 0.684 0.071 1.351 0.206 1.995l-0.011-0.063c3.446-1.889 7.319-4.806 7.17-8.332v-0.307c-2.462 0.252-4.766 1.238-6.557 2.805-0.395 0.888-0.668 1.918-0.765 2.998l-0.003 0.038z"></path>
</symbol>
<symbol id="icon-customer-6" viewBox="0 0 32 32">
<path  style="" d="M16.128 16.3c-0.115-0.148-0.184-0.337-0.184-0.542 0-0.020 0.001-0.040 0.002-0.060l-0 0.003v-0.871c0-0.267 0.060-0.469 0.182-0.608s0.329-0.208 0.623-0.207c0.277 0 0.474 0.059 0.59 0.177 0.127 0.151 0.189 0.335 0.174 0.52v0.205h-0.495v-0.207c0.002-0.068-0.003-0.136-0.015-0.203-0.009-0.049-0.034-0.091-0.071-0.12l-0-0c-0.044-0.030-0.099-0.048-0.158-0.048-0.008 0-0.015 0-0.022 0.001l0.001-0c-0.006-0-0.014-0.001-0.021-0.001-0.062 0-0.12 0.019-0.168 0.051l0.001-0.001c-0.041 0.033-0.070 0.079-0.082 0.131l-0 0.002c-0.013 0.060-0.020 0.128-0.020 0.198 0 0.006 0 0.012 0 0.017v-0.001 1.057c-0.008 0.102 0.014 0.204 0.063 0.296 0.026 0.032 0.059 0.056 0.097 0.071l0.002 0.001c0.040 0.016 0.085 0.021 0.128 0.017 0.006 0 0.014 0.001 0.021 0.001 0.058 0 0.111-0.018 0.155-0.049l-0.001 0.001c0.038-0.032 0.065-0.076 0.074-0.127l0-0.001c0.010-0.057 0.016-0.123 0.016-0.19 0-0.008-0-0.015-0-0.023l0 0.001v-0.214h0.495v0.196c0.001 0.015 0.002 0.034 0.002 0.052 0 0.188-0.065 0.361-0.174 0.497l0.001-0.002c-0.114 0.129-0.308 0.194-0.593 0.194s-0.501-0.069-0.622-0.213zM18.191 16.309c-0.125-0.135-0.188-0.333-0.188-0.594v-0.915c0-0.259 0.063-0.454 0.188-0.587s0.334-0.199 0.628-0.198c0.291 0 0.499 0.066 0.625 0.198s0.189 0.328 0.189 0.587v0.915c0 0.259-0.063 0.457-0.191 0.594s-0.334 0.204-0.622 0.204-0.501-0.069-0.628-0.204zM19.049 16.090c0.045-0.085 0.065-0.178 0.059-0.271v-1.121c0.001-0.009 0.001-0.020 0.001-0.030 0-0.086-0.022-0.167-0.060-0.238l0.001 0.003c-0.026-0.032-0.060-0.057-0.1-0.072l-0.002-0.001c-0.029-0.011-0.062-0.018-0.097-0.018-0.012 0-0.024 0.001-0.035 0.002l0.001-0c-0.010-0.001-0.022-0.002-0.034-0.002-0.035 0-0.069 0.007-0.099 0.018l0.002-0.001c-0.041 0.015-0.075 0.040-0.101 0.072l-0 0c-0.045 0.083-0.066 0.175-0.059 0.266v1.126c-0.006 0.093 0.014 0.186 0.059 0.271 0.029 0.028 0.065 0.051 0.104 0.067 0.038 0.015 0.081 0.024 0.127 0.024s0.090-0.009 0.13-0.025l-0.002 0.001c0.041-0.016 0.075-0.039 0.105-0.067l-0 0v-0.005zM20.228 14.041h0.533l0.401 1.689 0.411-1.689h0.519l0.053 2.438h-0.384l-0.041-1.694-0.396 1.694h-0.308l-0.41-1.701-0.038 1.701h-0.388l0.048-2.438zM22.741 14.041h0.831c0.479 0 0.718 0.231 0.718 0.693 0 0.442-0.252 0.663-0.756 0.662h-0.283v1.084h-0.513l0.003-2.438zM23.451 15.083c0.051 0.006 0.102 0.002 0.151-0.012s0.094-0.035 0.131-0.065c0.059-0.082 0.085-0.179 0.074-0.275 0-0.008 0-0.017 0-0.027 0-0.069-0.009-0.136-0.026-0.2l0.001 0.005c-0.008-0.026-0.021-0.048-0.038-0.067l0 0c-0.018-0.020-0.039-0.036-0.063-0.048l-0.001-0.001c-0.060-0.025-0.129-0.040-0.202-0.040-0.009 0-0.019 0-0.028 0.001l0.001-0h-0.199v0.729h0.199zM25.029 14.041h0.551l0.565 2.438h-0.478l-0.112-0.562h-0.491l-0.115 0.562h-0.485l0.565-2.438zM25.5 15.635l-0.192-1.023-0.192 1.023h0.383zM26.601 14.041h0.359l0.687 1.391v-1.391h0.426v2.438h-0.341l-0.691-1.452v1.452h-0.44l0.001-2.438zM29.070 15.55l-0.571-1.505h0.481l0.349 0.967 0.327-0.967h0.471l-0.564 1.505v0.93h-0.492v-0.93zM16.92 17.545v0.127h-0.418v0.991h-0.175v-0.991h-0.421v-0.127h1.014zM18.232 18.664h-0.136c-0.001 0-0.002 0-0.004 0-0.013 0-0.025-0.004-0.035-0.011l0 0c-0.010-0.006-0.017-0.015-0.022-0.025l-0-0-0.121-0.266h-0.581l-0.121 0.266c-0.004 0.012-0.010 0.022-0.019 0.030l-0 0c-0.010 0.007-0.022 0.011-0.035 0.011-0.001 0-0.002-0-0.003-0h-0.135l0.513-1.118h0.178l0.519 1.114zM17.383 18.248h0.484l-0.205-0.455c-0.013-0.029-0.026-0.064-0.036-0.1l-0.001-0.006c-0.007 0.021-0.013 0.042-0.019 0.059l-0.019 0.047-0.203 0.454zM19.116 18.554c0.032 0.001 0.064 0.001 0.097 0 0.027-0.003 0.055-0.007 0.082-0.014 0.025-0.005 0.050-0.012 0.074-0.020 0.023-0.008 0.045-0.018 0.069-0.027v-0.251h-0.205c-0 0-0.001 0-0.002 0-0.010 0-0.019-0.003-0.026-0.009l0 0c-0.003-0.002-0.006-0.005-0.008-0.009l-0-0c-0.002-0.003-0.002-0.006-0.002-0.010 0-0 0-0.001 0-0.001v0-0.086h0.398v0.429c-0.062 0.039-0.134 0.070-0.211 0.090l-0.005 0.001c-0.042 0.011-0.085 0.018-0.128 0.023s-0.095 0.007-0.147 0.007c-0.001 0-0.002 0-0.003 0h0c-0.002 0-0.004 0-0.006 0-0.090 0-0.177-0.015-0.258-0.043l0.006 0.002c-0.079-0.027-0.147-0.067-0.206-0.118l0.001 0.001c-0.055-0.049-0.099-0.108-0.131-0.174l-0.001-0.003c-0.030-0.066-0.047-0.143-0.047-0.225 0-0.003 0-0.005 0-0.008v0c-0-0.002-0-0.005-0-0.007 0-0.082 0.017-0.16 0.048-0.231l-0.001 0.004c0.029-0.066 0.075-0.127 0.132-0.177s0.128-0.090 0.205-0.116c0.088-0.029 0.181-0.043 0.275-0.042 0.048 0 0.095 0.003 0.142 0.010 0.042 0.006 0.083 0.015 0.122 0.028 0.036 0.011 0.070 0.027 0.103 0.044s0.061 0.037 0.089 0.059l-0.049 0.069c-0.004 0.006-0.010 0.012-0.016 0.015l-0 0c-0.007 0.004-0.015 0.006-0.023 0.006h-0c-0.012-0-0.023-0.003-0.032-0.009l0 0c-0.021-0.010-0.037-0.019-0.053-0.028l0.003 0.002c-0.019-0.011-0.042-0.021-0.065-0.029l-0.003-0.001c-0.026-0.009-0.058-0.018-0.090-0.024l-0.004-0.001c-0.037-0.006-0.080-0.010-0.123-0.010-0.002 0-0.005 0-0.007 0h0c-0.002-0-0.004-0-0.006-0-0.069 0-0.135 0.011-0.196 0.032l0.004-0.001c-0.057 0.020-0.109 0.050-0.151 0.088-0.041 0.038-0.073 0.084-0.094 0.136l-0.001 0.003c-0.022 0.055-0.034 0.119-0.034 0.186s0.013 0.131 0.036 0.19l-0.001-0.004c0.022 0.053 0.057 0.101 0.103 0.141 0.042 0.038 0.093 0.069 0.149 0.088 0.065 0.019 0.134 0.027 0.203 0.022zM20.75 18.536h0.56v0.128h-0.731v-1.118h0.175l-0.004 0.991zM21.893 18.664h-0.175v-1.118h0.175v1.118zM22.545 17.55c0.011 0.005 0.019 0.012 0.027 0.020l0 0 0.75 0.843c-0-0.006-0.001-0.013-0.001-0.020s0-0.014 0.001-0.021l-0 0.001v-0.833h0.153v1.123h-0.088c-0.002 0-0.004 0-0.006 0-0.012 0-0.023-0.002-0.033-0.007l0.001 0c-0.011-0.006-0.020-0.013-0.027-0.021l-0-0-0.749-0.842v0.869h-0.147v-1.118h0.091c0.010 0 0.020 0.002 0.029 0.005zM24.766 17.545v0.123h-0.621v0.369h0.504v0.119h-0.504v0.382h0.621v0.123h-0.802v-1.115h0.802zM6.389 10.639l7.787 1.909v6.689l-7.787-1.908v-6.691zM5.889 10.069v7.585l8.785 2.154v-7.584l-8.785-2.155z"></path>
<path  style="" d="M10.597 23.33l-8.786-2.156v-7.584l8.786 2.155v7.585z"></path>
<path  style="" d="M6.035 10.553l7.685 1.885-3.269 2.823-7.686-1.886 3.269-2.822zM5.889 10.069l-4.078 3.52 8.786 2.155 4.077-3.521-8.785-2.155zM11.092 22.903l3.582-3.094-3.582-0.879v3.973z"></path>
</symbol>
<symbol id="icon-diagram" viewBox="0 0 32 32">
<path  style="fill: var(--color2, #2196f3)" d="M14.926 14.965h1.066v4.798h-1.066v-4.798zM19.19 17.097h1.066v2.665h-1.066v-2.665zM10.661 18.696h1.066v1.066h-1.066v-1.066zM7.463 18.163h1.066v1.599h-1.066v-1.599z"></path>
<path  style="" d="M1.599 28.291h25.586c0 0 0 0 0 0 0.883 0 1.599-0.716 1.599-1.599v0-2.132c0-0.883-0.716-1.599-1.599-1.599v0h-0.533v-13.294l3.028-2.868c0.207 0.104 0.452 0.166 0.711 0.166 0.888 0 1.608-0.72 1.608-1.608s-0.72-1.608-1.608-1.608c-0.888 0-1.608 0.72-1.608 1.608 0 0.247 0.056 0.481 0.155 0.69l-0.004-0.010-2.281 2.162v-1.23c0-0.883-0.716-1.599-1.599-1.599v0h-21.323c-0.883 0-1.599 0.716-1.599 1.599v0 15.992h-0.533c-0.883 0-1.599 0.716-1.599 1.599v0 2.132c0 0.883 0.716 1.599 1.599 1.599v0zM30.384 4.837c0.294 0 0.533 0.239 0.533 0.533s-0.239 0.533-0.533 0.533v0c-0.294 0-0.533-0.239-0.533-0.533s0.239-0.533 0.533-0.533v0zM3.198 6.969c0-0.294 0.239-0.533 0.533-0.533h21.323c0.294 0 0.533 0.239 0.533 0.533v2.239l-1.066 1.013v-2.185c0-0.295-0.239-0.534-0.534-0.534h-19.189c-0.294 0-0.534 0.239-0.534 0.533v13.327c0 0.294 0.239 0.533 0.534 0.533h19.189c0.295 0 0.534-0.239 0.534-0.533v-9.675l1.066-1.010v12.283h-22.389v-15.991zM7.996 13.899c-0.001 0-0.003 0-0.005 0-0.883 0-1.599 0.716-1.599 1.599s0.716 1.599 1.599 1.599c0.432 0 0.824-0.172 1.112-0.45l-0 0 1.853 0.93c0.215 0.107 0.476 0.057 0.636-0.122l3.939-4.432 3.872 2.902c0.208 0.155 0.498 0.139 0.686-0.039l3.365-3.188v8.131h-18.123v-12.261h18.123v2.661l-3.771 3.572-3.904-2.927c-0.088-0.067-0.2-0.107-0.32-0.107-0.158 0-0.3 0.069-0.398 0.178l-0 0.001-3.993 4.493-1.493-0.746c0.011-0.064 0.017-0.128 0.020-0.193 0-0.883-0.716-1.599-1.599-1.599v0zM8.529 15.498c0 0.294-0.239 0.533-0.533 0.533s-0.533-0.239-0.533-0.533v0c0-0.294 0.239-0.533 0.533-0.533s0.533 0.239 0.533 0.533v0zM11.727 24.026h5.33v0.533c0 0.294-0.238 0.533-0.533 0.533h-4.265c-0.294 0-0.533-0.239-0.533-0.533v0-0.533zM1.067 24.56c0-0.294 0.238-0.533 0.533-0.533h9.062v0.533c0 0.883 0.716 1.599 1.599 1.599v0h4.265c0.883 0 1.599-0.716 1.599-1.599v0-0.533h9.062c0.294 0 0.533 0.239 0.533 0.533v2.132c0 0.294-0.239 0.533-0.533 0.533h-25.586c-0 0-0 0-0 0-0.294 0-0.533-0.239-0.533-0.533 0 0 0 0 0 0v0-2.132z"></path>
</symbol>
<symbol id="icon-email" viewBox="0 0 32 32">
<path style="" d="M29 4h-26c-1.654 0-3 1.346-3 3v18c0 1.654 1.346 3 3 3h26c1.654 0 3-1.346 3-3v-18c0-1.654-1.346-3-3-3zM29 6c0.136 0 0.266 0.028 0.384 0.078l-13.384 11.6-13.384-11.6c0.113-0.049 0.245-0.078 0.384-0.078h26zM29 26h-26c-0.552 0-1-0.448-1-1v0-16.81l13.344 11.566c0.175 0.152 0.404 0.245 0.656 0.245s0.481-0.093 0.657-0.246l-0.001 0.001 13.344-11.566v16.81c0 0.552-0.448 1-1 1v0z"></path>
</symbol>
<symbol id="icon-facebook" viewBox="0 0 32 32">
<path  style="" d="M21.328 5.312h2.923v-5.088c-1.232-0.143-2.66-0.224-4.107-0.224-0.052 0-0.104 0-0.157 0l0.008-0c-4.213 0-7.099 2.65-7.099 7.52v4.48h-4.646v5.688h4.646v14.312h5.699v-14.31h4.459l0.709-5.688h-5.17v-3.922c0-1.643 0.443-2.768 2.734-2.768z"></path>
</symbol>
<symbol id="icon-facebook-2" viewBox="0 0 32 32">
<path  style="" d="M21.328 5.312h2.923v-5.088c-1.232-0.143-2.66-0.224-4.107-0.224-0.052 0-0.104 0-0.157 0l0.008-0c-4.213 0-7.099 2.65-7.099 7.52v4.48h-4.646v5.688h4.646v14.312h5.699v-14.31h4.459l0.709-5.688h-5.17v-3.922c0-1.643 0.443-2.768 2.734-2.768z"></path>
</symbol>
<symbol id="icon-instagram" viewBox="0 0 32 32">
<path  style="" d="M31.968 9.408c-0.074-1.701-0.349-2.869-0.742-3.882-0.424-1.111-1.054-2.059-1.85-2.837l-0.001-0.001c-0.78-0.792-1.724-1.419-2.778-1.827l-0.054-0.018c-1.019-0.394-2.181-0.667-3.882-0.742-1.712-0.082-2.256-0.101-6.602-0.101-4.344 0-4.888 0.019-6.595 0.094-1.699 0.074-2.869 0.349-3.88 0.742-1.112 0.424-2.060 1.054-2.839 1.85l-0.001 0.001c-0.791 0.78-1.418 1.724-1.825 2.778l-0.018 0.054c-0.395 1.019-0.669 2.181-0.744 3.882-0.082 1.712-0.101 2.256-0.101 6.602 0 4.344 0.019 4.888 0.094 6.595 0.075 1.701 0.35 2.869 0.744 3.882 0.426 1.11 1.055 2.057 1.849 2.837l0.001 0.001c0.8 0.813 1.77 1.443 2.832 1.843 1.019 0.395 2.182 0.67 3.882 0.744 1.707 0.075 2.251 0.094 6.595 0.094 4.346 0 4.89-0.019 6.595-0.094 1.701-0.074 2.869-0.349 3.882-0.742 2.157-0.85 3.833-2.526 4.664-4.628l0.019-0.055c0.394-1.019 0.669-2.182 0.744-3.882 0.075-1.707 0.093-2.251 0.093-6.595s-0.006-4.888-0.080-6.595zM29.088 22.474c-0.070 1.563-0.333 2.406-0.55 2.97-0.552 1.399-1.64 2.486-3.004 3.024l-0.036 0.012c-0.56 0.219-1.411 0.482-2.968 0.55-1.688 0.075-2.194 0.094-6.464 0.094-4.269 0-4.782-0.019-6.464-0.094-1.563-0.069-2.406-0.331-2.97-0.55-0.721-0.269-1.334-0.676-1.836-1.192l-0.001-0.001c-0.517-0.503-0.924-1.117-1.184-1.803l-0.011-0.034c-0.218-0.563-0.48-1.413-0.549-2.97-0.075-1.688-0.094-2.195-0.094-6.464 0-4.27 0.019-4.784 0.094-6.464 0.069-1.563 0.331-2.406 0.549-2.97 0.269-0.722 0.678-1.337 1.198-1.837l0.002-0.002c0.504-0.517 1.119-0.923 1.806-1.182l0.034-0.011c0.56-0.219 1.411-0.48 2.968-0.55 1.688-0.074 2.195-0.093 6.464-0.093 4.275 0 4.782 0.019 6.464 0.093 1.563 0.069 2.406 0.331 2.97 0.55 0.693 0.256 1.325 0.662 1.837 1.194 0.531 0.52 0.938 1.144 1.195 1.84 0.218 0.56 0.48 1.411 0.549 2.968 0.075 1.688 0.094 2.194 0.094 6.464 0 4.269-0.019 4.768-0.094 6.458z"></path>
<path  style="" d="M16.059 7.782c-4.539 0.002-8.218 3.682-8.219 8.221v0c0.091 4.471 3.737 8.060 8.221 8.060s8.13-3.589 8.221-8.052l0-0.009c-0.001-4.54-3.681-8.22-8.221-8.221h-0zM16.059 21.334c-2.945-0-5.332-2.388-5.332-5.333s2.388-5.333 5.333-5.333c0 0 0.001 0 0.001 0h-0c2.946 0 5.334 2.388 5.334 5.334s-2.388 5.334-5.334 5.334v0zM26.525 7.458c0 1.060-0.86 1.92-1.92 1.92s-1.92-0.86-1.92-1.92v0c0-1.060 0.86-1.92 1.92-1.92s1.92 0.86 1.92 1.92v0z"></path>
</symbol>
<symbol id="icon-instagram-2" viewBox="0 0 32 32">
<path  style="" d="M31.968 9.408c-0.074-1.701-0.349-2.869-0.742-3.882-0.424-1.111-1.054-2.059-1.85-2.837l-0.001-0.001c-0.78-0.792-1.724-1.419-2.778-1.827l-0.054-0.018c-1.019-0.394-2.181-0.667-3.882-0.742-1.712-0.082-2.256-0.101-6.602-0.101-4.344 0-4.888 0.019-6.595 0.094-1.699 0.074-2.869 0.349-3.88 0.742-1.112 0.424-2.060 1.054-2.839 1.85l-0.001 0.001c-0.791 0.78-1.418 1.724-1.825 2.778l-0.018 0.054c-0.395 1.019-0.669 2.181-0.744 3.882-0.082 1.712-0.101 2.256-0.101 6.602 0 4.344 0.019 4.888 0.094 6.595 0.075 1.701 0.35 2.869 0.744 3.882 0.426 1.11 1.055 2.057 1.849 2.837l0.001 0.001c0.8 0.813 1.77 1.443 2.832 1.843 1.019 0.395 2.182 0.67 3.882 0.744 1.707 0.075 2.251 0.094 6.595 0.094 4.346 0 4.89-0.019 6.595-0.094 1.701-0.074 2.869-0.349 3.882-0.742 2.157-0.85 3.833-2.526 4.664-4.628l0.019-0.055c0.394-1.019 0.669-2.182 0.744-3.882 0.075-1.707 0.093-2.251 0.093-6.595s-0.006-4.888-0.080-6.595zM29.088 22.474c-0.070 1.563-0.333 2.406-0.55 2.97-0.552 1.399-1.64 2.486-3.004 3.024l-0.036 0.012c-0.56 0.219-1.411 0.482-2.968 0.55-1.688 0.075-2.194 0.094-6.464 0.094-4.269 0-4.782-0.019-6.464-0.094-1.563-0.069-2.406-0.331-2.97-0.55-0.721-0.269-1.334-0.676-1.836-1.192l-0.001-0.001c-0.517-0.503-0.924-1.117-1.184-1.803l-0.011-0.034c-0.218-0.563-0.48-1.413-0.549-2.97-0.075-1.688-0.094-2.195-0.094-6.464 0-4.27 0.019-4.784 0.094-6.464 0.069-1.563 0.331-2.406 0.549-2.97 0.269-0.722 0.678-1.337 1.198-1.837l0.002-0.002c0.504-0.517 1.119-0.923 1.806-1.182l0.034-0.011c0.56-0.219 1.411-0.48 2.968-0.55 1.688-0.074 2.195-0.093 6.464-0.093 4.275 0 4.782 0.019 6.464 0.093 1.563 0.069 2.406 0.331 2.97 0.55 0.693 0.256 1.325 0.662 1.837 1.194 0.531 0.52 0.938 1.144 1.195 1.84 0.218 0.56 0.48 1.411 0.549 2.968 0.075 1.688 0.094 2.194 0.094 6.464 0 4.269-0.019 4.768-0.094 6.458z"></path>
<path  style="" d="M16.059 7.782c-4.539 0.002-8.218 3.682-8.219 8.221v0c0 0 0 0.001 0 0.002 0 4.541 3.681 8.222 8.222 8.222s8.222-3.681 8.222-8.222c0-4.541-3.681-8.222-8.222-8.222-0.001 0-0.001 0-0.002 0h0zM16.059 21.334c-2.945-0-5.332-2.388-5.332-5.333s2.388-5.333 5.333-5.333c0 0 0.001 0 0.001 0h-0c2.946 0 5.334 2.388 5.334 5.334s-2.388 5.334-5.334 5.334v0zM26.525 7.458c0 1.060-0.86 1.92-1.92 1.92s-1.92-0.86-1.92-1.92v0c0-1.060 0.86-1.92 1.92-1.92s1.92 0.86 1.92 1.92v0z"></path>
</symbol>
<symbol id="icon-linkedin" viewBox="0 0 32 32">
<path  style="" d="M31.992 32h0.008v-11.738c0-5.741-1.237-10.163-7.947-10.163-3.227 0-5.392 1.77-6.277 3.45h-0.093v-2.914h-6.365v21.363h6.627v-10.578c0-2.786 0.528-5.48 3.978-5.48 3.398 0 3.448 3.179 3.448 5.658v10.402h6.621zM0.528 10.635h6.635v21.365h-6.635v-21.365zM3.843 0c-2.123 0-3.843 1.721-3.843 3.843v0c0 2.12 1.722 3.878 3.843 3.878 2.12 0 3.842-1.757 3.842-3.878s-1.72-3.841-3.841-3.843h-0z"></path>
</symbol>
<symbol id="icon-linkedin-2" viewBox="0 0 32 32">
<path  style="" d="M31.992 32h0.008v-11.738c0-5.741-1.237-10.163-7.947-10.163-3.227 0-5.392 1.77-6.277 3.45h-0.093v-2.914h-6.365v21.363h6.627v-10.578c0-2.786 0.528-5.48 3.978-5.48 3.398 0 3.448 3.179 3.448 5.658v10.402h6.621zM0.528 10.635h6.635v21.365h-6.635v-21.365zM3.843 0c-2.123 0-3.843 1.721-3.843 3.843v0c0 2.12 1.722 3.878 3.843 3.878 2.12 0 3.842-1.757 3.842-3.878s-1.72-3.841-3.841-3.843h-0z"></path>
</symbol>
<symbol id="icon-smartphone" viewBox="0 0 32 32">
<path style="" d="M23 0h-14c-1.654 0-3 1.346-3 3v26c0 1.654 1.346 3 3 3h14c1.654 0 3-1.346 3-3v-26c0-1.654-1.346-3-3-3zM9 2h14c0.552 0 1 0.448 1 1v0 21h-16v-21c0-0.552 0.448-1 1-1v0zM23 30h-14c-0.552 0-1-0.448-1-1v0-3h16v3c0 0.552-0.448 1-1 1v0z"></path>
<path style="" d="M10.708 27.478c0.18 0.163 0.293 0.399 0.293 0.66s-0.113 0.497-0.292 0.659l-0.001 0.001c-0.186 0.17-0.435 0.275-0.708 0.275s-0.522-0.104-0.709-0.275l0.001 0.001c-0.18-0.163-0.293-0.399-0.293-0.66s0.113-0.497 0.292-0.659l0.001-0.001c0.186-0.17 0.435-0.275 0.708-0.275s0.522 0.104 0.709 0.275l-0.001-0.001z"></path>
</symbol>
<symbol id="icon-twitter" viewBox="0 0 32 32">
<path  style="" d="M32 6.078c-1.1 0.493-2.376 0.857-3.713 1.028l-0.068 0.007c1.36-0.817 2.382-2.078 2.873-3.579l0.013-0.046c-1.197 0.722-2.591 1.273-4.076 1.573l-0.084 0.014c-1.2-1.279-2.9-2.076-4.787-2.076-3.622 0-6.558 2.936-6.558 6.558 0 0.001 0 0.003 0 0.004v-0c0 0.52 0.043 1.021 0.152 1.496-5.454-0.266-10.28-2.88-13.522-6.861-0.564 0.949-0.899 2.092-0.902 3.313v0.001c0 2.272 1.171 4.286 2.914 5.451-1.091-0.030-2.107-0.325-2.994-0.823l0.033 0.017v0.072c0.003 3.165 2.236 5.807 5.213 6.44l0.043 0.008c-0.499 0.136-1.071 0.215-1.662 0.215-0.020 0-0.041-0-0.061-0l0.003 0c-0.419 0-0.843-0.024-1.242-0.112 0.85 2.598 3.261 4.509 6.13 4.57-2.215 1.746-5.045 2.8-8.122 2.8-0.004 0-0.008 0-0.013 0h0.001c-0.018 0-0.040 0-0.062 0-0.531 0-1.055-0.034-1.569-0.099l0.061 0.006c2.826 1.846 6.287 2.944 10.004 2.944 0.021 0 0.042-0 0.063-0h-0.003c12.072 0 18.672-10 18.672-18.669 0-0.288-0.010-0.57-0.024-0.848 1.299-0.936 2.39-2.064 3.258-3.355l0.030-0.047z"></path>
</symbol>
<symbol id="icon-twitter-2" viewBox="0 0 32 32">
<path  style="" d="M32 6.078c-1.1 0.493-2.376 0.857-3.713 1.028l-0.068 0.007c1.36-0.817 2.382-2.078 2.873-3.579l0.013-0.046c-1.198 0.722-2.591 1.273-4.076 1.573l-0.084 0.014c-1.2-1.279-2.9-2.076-4.787-2.076-3.622 0-6.558 2.936-6.558 6.558 0 0.001 0 0.003 0 0.004v-0c0 0.52 0.043 1.021 0.152 1.496-5.454-0.266-10.28-2.88-13.522-6.861-0.564 0.949-0.899 2.092-0.902 3.313v0.001c0 2.272 1.171 4.286 2.914 5.451-1.091-0.030-2.107-0.325-2.994-0.823l0.033 0.017v0.072c0.003 3.165 2.236 5.807 5.213 6.44l0.043 0.008c-0.499 0.136-1.071 0.215-1.662 0.215-0.020 0-0.041-0-0.061-0l0.003 0c-0.419 0-0.843-0.024-1.242-0.112 0.85 2.598 3.261 4.509 6.13 4.57-2.215 1.746-5.046 2.8-8.123 2.8-0.004 0-0.008 0-0.012 0h0.001c-0.538 0-1.053-0.026-1.57-0.091 2.827 1.846 6.287 2.944 10.004 2.944 0.021 0 0.042-0 0.063-0h-0.003c12.072 0 18.672-10 18.672-18.669 0-0.288-0.010-0.57-0.024-0.848 1.299-0.936 2.391-2.065 3.258-3.356l0.030-0.047z"></path>
</symbol>
<symbol id="icon-close" viewBox="0 0 32 32">
<path d="M26.667 7.303l-1.97-1.97-7.808 7.808-7.808-7.808-1.97 1.97 7.808 7.808-7.808 7.808 1.97 1.97 7.808-7.808 7.808 7.808 1.97-1.97-7.808-7.808 7.808-7.808z"></path>
</symbol>
<symbol id="icon-mail" viewBox="0 0 32 32">
<path d="M26.667 5.333h-21.333c-1.467 0-2.652 1.2-2.652 2.667l-0.014 16c0 1.467 1.2 2.667 2.667 2.667h21.333c1.467 0 2.667-1.2 2.667-2.667v-16c0-1.467-1.2-2.667-2.667-2.667zM26.133 11.001l-9.426 5.892c-0.201 0.126-0.446 0.2-0.708 0.2s-0.506-0.075-0.713-0.204l0.006 0.003-9.426-5.892c-0.336-0.201-0.557-0.562-0.557-0.975 0-0.625 0.507-1.132 1.132-1.132 0.233 0 0.449 0.070 0.629 0.19l-0.004-0.003 8.933 5.586 8.933-5.588c0.176-0.118 0.392-0.188 0.624-0.188 0.625 0 1.132 0.507 1.132 1.132 0 0.413-0.221 0.775-0.552 0.972l-0.005 0.003z"></path>
</symbol>
<symbol id="icon-person" viewBox="0 0 32 32">
<path d="M16 16c2.946 0 5.333-2.388 5.333-5.333s-2.388-5.333-5.333-5.333v0c-2.946 0-5.333 2.388-5.333 5.333s2.388 5.333 5.333 5.333v0zM16 18.667c-3.561 0-10.667 1.787-10.667 5.333v1.333c0 0.732 0.599 1.333 1.333 1.333h18.667c0.732 0 1.333-0.601 1.333-1.333v-1.333c0-3.547-7.108-5.333-10.667-5.333z"></path>
</symbol>
<symbol id="icon-phone" viewBox="0 0 32 32">
<path d="M24.882 19.774l-3.268-0.373c-0.090-0.011-0.194-0.018-0.3-0.018-0.707 0-1.347 0.287-1.81 0.75l-2.368 2.368c-3.669-1.894-6.585-4.81-8.427-8.372l-0.051-0.108 2.382-2.377c0.463-0.463 0.75-1.103 0.75-1.81 0-0.106-0.006-0.21-0.019-0.312l0.001 0.012-0.373-3.243c-0.155-1.287-1.24-2.276-2.557-2.276-0.001 0-0.002 0-0.003 0h-2.226c-1.454 0-2.663 1.209-2.574 2.661 0.683 10.987 9.47 19.762 20.444 20.444 1.452 0.089 2.663-1.12 2.663-2.574v-2.226c0-0.004 0-0.008 0-0.012 0-1.308-0.985-2.386-2.253-2.532l-0.012-0.001z"></path>
</symbol>
<symbol id="icon-suscribe" viewBox="0 0 32 32">
<path  style="" d="M32 0l-32 18 10.227 3.787 15.773-14.787-11.997 16.187 0.009 0.003-0.012-0.003v8.813l5.735-6.691 7.267 2.691 4.999-28z"></path>
</symbol>
<symbol id="icon-checkbox" viewBox="0 0 42 32">
<path  style="fill: var(--color1, #fff); stroke: var(--color1, #fff)" stroke="#fff" stroke-linejoin="miter" stroke-linecap="butt" stroke-miterlimit="4" stroke-width="0.64" d="M6.262 15.206l-0.221-0.211-0.221 0.208-3.085 2.925 0.243 0.234 11.408 10.88 0.221-0.211 24.256-23.139-0.243-0.23-3.043-2.902-0.221 0.211-20.97 19.987-8.125-7.75z"></path>
</symbol>
</defs>
</svg>
